PathFileType	4	(X/Y/Z)	OpenSim_Sub07_EMGStiffKnee_Magnet.trc
DataRate	CameraRate	NumFrames	NumMarkers	Units	OrigDataRate	OrigDataStartFrame	OrigNumFrames
100	100	27	8	m	100	1848	7388
Frame#	Time	torso_imu_offset_imu	pelvis_imu_offset_imu	tibia_r_imu_offset_imu	femur_r_imu_offset_imu	tibia_l_imu_offset_imu	femur_l_imu_offset_imu	toes_r_imu_offset_imu	toes_l_imu_offset_imu
				X1	Y1	Z1	X2	Y2	Z2	X3	Y3	Z3	X4	Y4	Z4	X5	Y5	Z5	X6	Y6	Z6	X7	Y7	Z7	X8		Y8	Z8	

1848	18.47000000	0.94287739	0.16333354	0.04363175	-0.68162009	0.08196170	-0.68177630	-0.52077905	-0.64843129	0.09951206	-0.75526550	-0.40716839	-0.12485487	-0.55386114	0.62601174	0.00015049	-0.77655997	0.13851907	0.34167345	-0.74272028	-0.37145403	-0.41491868	-0.77276083	-0.10507159	-0.33065439
1849	18.48000000	0.94294333	0.16160457	0.04188175	-0.68344227	0.07955332	-0.68487170	-0.52225472	-0.65343107	0.09630578	-0.74815897	-0.41361905	-0.12393932	-0.57321708	0.61299853	0.00333408	-0.77500826	0.13056991	0.34404157	-0.74955036	-0.37596236	-0.40832255	-0.76048126	-0.11153783	-0.34762499
1850	18.49000000	0.94246660	0.16191273	0.04288161	-0.67616320	0.08014640	-0.68517650	-0.51169200	-0.65368731	0.09905734	-0.74040962	-0.41420461	-0.12698716	-0.58533186	0.59409308	0.01193414	-0.78135931	0.12515378	0.34494903	-0.75358875	-0.37942031	-0.40660595	-0.74837237	-0.12170554	-0.36213998
1851	18.50000000	0.94019233	0.16193451	0.05026387	-0.67647898	0.07730541	-0.68489529	-0.50915120	-0.65605349	0.10322773	-0.73928153	-0.42574679	-0.13199115	-0.60240121	0.57516865	0.01510508	-0.78186197	0.11583166	0.34569603	-0.75992556	-0.37629632	-0.40187771	-0.74217587	-0.13075771	-0.37286286
1852	18.51000000	0.94136402	0.16139862	0.05135667	-0.67498592	0.07930741	-0.68844700	-0.51356335	-0.66225723	0.10234942	-0.73994431	-0.42813993	-0.12960750	-0.62324760	0.55987389	0.02164492	-0.78042004	0.10735867	0.35000099	-0.76366299	-0.37549402	-0.40260446	-0.73080557	-0.13803113	-0.38649701
1853	18.52000000	0.93979383	0.15778866	0.04978099	-0.67340482	0.07590977	-0.69086972	-0.50191534	-0.66526930	0.09530867	-0.73304154	-0.43379054	-0.13488188	-0.63329933	0.53825554	0.03113303	-0.77935452	0.09862734	0.34958728	-0.76692340	-0.37570013	-0.39784211	-0.72639815	-0.15122063	-0.39196830
1854	18.53000000	0.94461501	0.15533847	0.04944659	-0.66954353	0.07484132	-0.69389517	-0.50125107	-0.66734271	0.09769363	-0.72471880	-0.43843151	-0.14340982	-0.64366533	0.52499943	0.03833882	-0.78149351	0.08935999	0.34129678	-0.76593510	-0.37604474	-0.39393385	-0.71624977	-0.16628966	-0.40286532
1855	18.54000000	0.94423717	0.15472117	0.05309582	-0.66750995	0.07655642	-0.69182096	-0.49882294	-0.66889338	0.09955087	-0.72567909	-0.44057336	-0.14617320	-0.66385863	0.50616314	0.04158764	-0.78399897	0.08345569	0.34626739	-0.77150483	-0.37426291	-0.38773474	-0.70263993	-0.17172263	-0.40788901
1856	18.55000000	0.93907382	0.15341623	0.05500564	-0.66677417	0.07918948	-0.69990188	-0.49192096	-0.66740393	0.09660908	-0.72375124	-0.44650245	-0.15339189	-0.67124575	0.49033341	0.04806824	-0.78382930	0.08107695	0.34532642	-0.77394656	-0.37132750	-0.37763747	-0.69715776	-0.17955330	-0.41849562
1857	18.56000000	0.94060979	0.15775859	0.05463458	-0.66982327	0.07679652	-0.69905128	-0.48596347	-0.67304538	0.09637129	-0.71623997	-0.44971907	-0.15464746	-0.68225213	0.47220547	0.05117147	-0.78359247	0.07633374	0.34067553	-0.76785173	-0.37221117	-0.37809606	-0.68848755	-0.19664015	-0.42811278
1858	18.57000000	0.94327586	0.15310189	0.06286011	-0.66356540	0.07689400	-0.70264558	-0.47803772	-0.68381984	0.09792727	-0.71384429	-0.45193566	-0.15787400	-0.69285654	0.45138552	0.05437207	-0.78232330	0.07180579	0.34130525	-0.76898169	-0.36991114	-0.37630319	-0.67908952	-0.20489670	-0.42980143
1859	18.58000000	0.94332353	0.14878260	0.06366424	-0.65979043	0.07504173	-0.70233704	-0.47688890	-0.68670410	0.09613825	-0.70735803	-0.45635769	-0.16752026	-0.70455283	0.43946759	0.06302706	-0.77734290	0.06904104	0.34661639	-0.77033804	-0.36784587	-0.37208883	-0.67007139	-0.21010582	-0.44083172
1860	18.59000000	0.94343701	0.15787342	0.06198329	-0.66769001	0.07988091	-0.70229517	-0.47632164	-0.69114160	0.10014669	-0.70794069	-0.45630609	-0.17205196	-0.71588451	0.42429586	0.07499345	-0.78264609	0.06437784	0.35001082	-0.76343985	-0.37058914	-0.37258905	-0.66045552	-0.22155723	-0.45653615
1861	18.60000000	0.94068976	0.15631147	0.06177431	-0.66503884	0.08035900	-0.70176515	-0.46447127	-0.69541005	0.10070866	-0.70464381	-0.45840861	-0.17393322	-0.71418849	0.40737967	0.08134151	-0.78194366	0.06153798	0.34692370	-0.76775555	-0.36663407	-0.37220288	-0.65198772	-0.23677963	-0.46859658
1862	18.61000000	0.93715622	0.15121451	0.06229718	-0.66487120	0.08187022	-0.69342999	-0.45754350	-0.69880198	0.10231918	-0.70480440	-0.46209395	-0.17606373	-0.72352590	0.39555766	0.08159618	-0.77692427	0.06082496	0.35227302	-0.76414356	-0.35994649	-0.36941948	-0.64361049	-0.24517641	-0.47403869
1863	18.62000000	0.94342448	0.14924963	0.06332393	-0.66748756	0.08627448	-0.69371846	-0.45113306	-0.70627232	0.10328858	-0.70447630	-0.46295721	-0.17884272	-0.73200541	0.38115006	0.09136088	-0.77654777	0.05580851	0.36013035	-0.76432320	-0.35928614	-0.36847131	-0.63131106	-0.25585838	-0.47819595
1864	18.63000000	0.94032740	0.15371640	0.06868744	-0.66947537	0.08528071	-0.69637063	-0.44353146	-0.71355225	0.09897937	-0.70112538	-0.46477133	-0.17848384	-0.73258139	0.37651026	0.09368080	-0.77539205	0.05635043	0.36138599	-0.76505669	-0.36575590	-0.36372220	-0.62126912	-0.26377981	-0.48157774
1865	18.64000000	0.93686825	0.16007793	0.06541317	-0.67210544	0.08714099	-0.69419270	-0.43068759	-0.71717843	0.09539451	-0.70113114	-0.47095957	-0.17894005	-0.73902643	0.37172010	0.09474770	-0.77282858	0.05839510	0.36662292	-0.76238667	-0.36655291	-0.36445960	-0.61624618	-0.27469296	-0.48639194
1866	18.65000000	0.93927151	0.16134092	0.06279454	-0.67324830	0.09554034	-0.69374330	-0.42244488	-0.72503259	0.10290671	-0.69766474	-0.46488996	-0.18145754	-0.74022305	0.36437310	0.10114868	-0.76784710	0.06634982	0.36764512	-0.76052583	-0.35789795	-0.36854553	-0.60829191	-0.28000890	-0.49282056
1867	18.66000000	0.94231444	0.15938585	0.06214537	-0.67455449	0.09755074	-0.68659472	-0.41293575	-0.73370614	0.10260214	-0.69556665	-0.46261071	-0.18007164	-0.74059860	0.35831405	0.10332681	-0.76454205	0.07033675	0.37485228	-0.75911984	-0.36044516	-0.37059210	-0.60562791	-0.27940432	-0.48704540
1868	18.67000000	0.94187573	0.16575184	0.06091399	-0.67389928	0.09636831	-0.68416910	-0.39934527	-0.73957095	0.10142211	-0.69951965	-0.46218813	-0.18262143	-0.73505937	0.35794268	0.11017464	-0.75851917	0.06917530	0.37380930	-0.75913159	-0.36155545	-0.36510658	-0.60446796	-0.28854906	-0.49129053
1869	18.68000000	0.94078679	0.16998848	0.05775194	-0.67167920	0.10065589	-0.68860209	-0.39014474	-0.74280368	0.10146626	-0.70219078	-0.46109172	-0.18678878	-0.73630320	0.36449573	0.11195816	-0.75875365	0.07842886	0.37861564	-0.76028147	-0.36075418	-0.35931670	-0.60787572	-0.28897819	-0.48327048
1870	18.69000000	0.93932329	0.16956739	0.05317885	-0.67946472	0.11119767	-0.68118172	-0.37299678	-0.75187152	0.10286633	-0.70158506	-0.46296859	-0.18644633	-0.73603853	0.36512990	0.11385222	-0.75610629	0.08724973	0.38421690	-0.76641975	-0.35816178	-0.35996863	-0.63133390	-0.26710456	-0.46825914
1871	18.70000000	0.93911262	0.17196032	0.05308191	-0.68131038	0.11385925	-0.67302364	-0.36176980	-0.75710073	0.10410254	-0.70210437	-0.45862373	-0.18227670	-0.72973677	0.36909945	0.12070204	-0.75117861	0.08706576	0.39029527	-0.77053368	-0.35291178	-0.35771143	-0.63663993	-0.25393365	-0.46605044
1872	18.71000000	0.94120990	0.17115455	0.05115277	-0.67846192	0.11493246	-0.67000221	-0.34556553	-0.76371489	0.10660383	-0.70136876	-0.45648518	-0.19107721	-0.72050651	0.37870754	0.12485552	-0.75292819	0.09140987	0.39876420	-0.77042289	-0.34814639	-0.35222813	-0.64178199	-0.25869838	-0.45543496
1873	18.72000000	0.94321848	0.17716228	0.05184993	-0.68149908	0.11988731	-0.66915173	-0.32358858	-0.77075135	0.10797018	-0.70425085	-0.45158246	-0.19671098	-0.71713829	0.38986549	0.13567673	-0.74906834	0.08972025	0.39988885	-0.78004573	-0.34679271	-0.33929191	-0.65503360	-0.24521331	-0.44799117
1874	18.73000000	0.94103429	0.17699092	0.04948693	-0.68502715	0.12287339	-0.66618501	-0.30899568	-0.77731622	0.10547194	-0.70939253	-0.44904381	-0.19712397	-0.71283948	0.39217359	0.14421509	-0.74032481	0.09179820	0.40379582	-0.79285765	-0.33957495	-0.33426320	-0.67006687	-0.23658341	-0.43396992
